<?xml version="1.0" encoding="utf-8"?>
<!-- Generator: Adobe Illustrator 23.0.3, SVG Export Plug-In . SVG Version: 6.00 Build 0)  -->
<svg version="1.1" id="Layer_1" xmlns="http://www.w3.org/2000/svg" xmlns:xlink="http://www.w3.org/1999/xlink" x="0px" y="0px"
	 viewBox="0 0 1300.7 122.7" style="enable-background:new 0 0 1300.7 122.7;" xml:space="preserve">
<style type="text/css">
	.st0{fill:#76CABB;}
	.st1{fill:#F0EFEF;}
	.st2{fill:#156684;}
	.st3{fill:#242A60;}
</style>
<g>
	<path class="st0" d="M85.2,34.9v85.8H62.1v-10.2c-3.2,3.7-7.1,6.6-11.6,8.5c-4.5,2-9.3,3-14.5,3c-11,0-19.8-3.2-26.3-9.7
		C3.2,105.8,0,96.2,0,83.4V34.9h24.4v44.8c0,13.8,5.7,20.7,17,20.7c5.8,0,10.5-1.9,14.1-5.8c3.5-3.9,5.3-9.7,5.3-17.3V34.9H85.2z"/>
	<path class="st0" d="M184.2,43.2c6.4,6.4,9.6,15.8,9.6,28.4v49.1h-24.4V75.5c0-6.8-1.5-11.9-4.4-15.2c-2.9-3.4-7.1-5-12.7-5
		c-6.1,0-11,1.9-14.7,5.8c-3.6,3.9-5.5,9.7-5.5,17.3v42.4h-24.4V34.9h23.3V45c3.2-3.6,7.2-6.4,12-8.4c4.8-2,10.1-3,15.8-3
		C169.4,33.7,177.8,36.9,184.2,43.2z"/>
	<path class="st0" d="M233,116.4c-7-3.8-12.5-9-16.5-15.7c-4-6.7-5.9-14.3-5.9-22.8c0-8.5,2-16.1,5.9-22.8c4-6.7,9.5-11.9,16.5-15.7
		c7-3.8,15-5.7,23.8-5.7c8.9,0,16.8,1.9,23.8,5.7c7,3.8,12.5,9,16.4,15.7c4,6.7,5.9,14.3,5.9,22.8c0,8.5-2,16.1-5.9,22.8
		c-4,6.7-9.4,11.9-16.4,15.7c-7,3.8-14.9,5.7-23.8,5.7C248,122,240,120.2,233,116.4z M272.2,95.2c4-4.3,6-10.1,6-17.3
		c0-7.2-2-13-6-17.3c-4-4.3-9.1-6.5-15.4-6.5c-6.3,0-11.4,2.2-15.5,6.5c-4.1,4.3-6.1,10.1-6.1,17.3c0,7.2,2,13,6.1,17.3
		c4.1,4.3,9.2,6.5,15.5,6.5C263.1,101.6,268.2,99.5,272.2,95.2z"/>
</g>
<g>
	<path class="st1" d="M375.8,115.8c-2.1,1.9-4.7,3.4-7.8,4.4c-3.1,1-6.3,1.5-9.6,1.5c-8,0-14.2-2.3-18.5-6.9
		c-4.4-4.6-6.6-11.1-6.6-19.6V48.8h-13.5V36.2h13.5V17.7h14.4v18.5h22.7v12.6h-22.7v45.8c0,4.6,1.1,8.1,3.2,10.5
		c2.1,2.4,5.2,3.7,9.2,3.7c4.4,0,8.1-1.3,11.2-4L375.8,115.8z"/>
	<path class="st1" d="M461.8,83.6h-64.3c0.9,7.4,4,13.4,9.2,17.9c5.2,4.5,11.7,6.8,19.5,6.8c9.5,0,17.1-3.4,22.9-10.2l7.9,9.9
		c-3.6,4.5-8.1,7.9-13.4,10.2c-5.3,2.3-11.3,3.5-17.9,3.5c-8.4,0-15.8-1.8-22.3-5.5c-6.5-3.7-11.5-8.8-15-15.4
		c-3.5-6.6-5.3-14-5.3-22.3c0-8.2,1.7-15.6,5.2-22.2c3.4-6.6,8.2-11.7,14.2-15.4c6-3.7,12.8-5.5,20.4-5.5c7.6,0,14.3,1.8,20.3,5.5
		c5.9,3.7,10.6,8.8,13.9,15.4c3.3,6.6,5,14.1,5,22.7C462.1,80.1,462,81.7,461.8,83.6z M405.7,55c-4.6,4.5-7.4,10.3-8.1,17.5h50.8
		c-0.8-7.1-3.5-12.9-8.1-17.5c-4.6-4.5-10.4-6.8-17.3-6.8C416.1,48.3,410.3,50.6,405.7,55z"/>
	<path class="st1" d="M482,2.4h14.4v118.4H482V2.4z"/>
	<path class="st1" d="M595.1,83.6h-64.3c0.9,7.4,4,13.4,9.2,17.9c5.2,4.5,11.7,6.8,19.5,6.8c9.5,0,17.1-3.4,22.9-10.2l7.9,9.9
		c-3.6,4.5-8.1,7.9-13.4,10.2c-5.3,2.3-11.3,3.5-17.9,3.5c-8.4,0-15.8-1.8-22.3-5.5c-6.5-3.7-11.5-8.8-15-15.4
		c-3.5-6.6-5.3-14-5.3-22.3c0-8.2,1.7-15.6,5.2-22.2c3.4-6.6,8.2-11.7,14.2-15.4c6-3.7,12.8-5.5,20.4-5.5c7.6,0,14.3,1.8,20.3,5.5
		c5.9,3.7,10.6,8.8,13.9,15.4c3.3,6.6,5,14.1,5,22.7C595.4,80.1,595.3,81.7,595.1,83.6z M538.9,55c-4.6,4.5-7.4,10.3-8.1,17.5h50.8
		c-0.8-7.1-3.5-12.9-8.1-17.5c-4.6-4.5-10.4-6.8-17.3-6.8C549.3,48.3,543.5,50.6,538.9,55z"/>
	<path class="st1" d="M738.1,44.7c5.8,6.2,8.7,15.3,8.7,27.4v48.7h-14.4V73.9c0-8.2-1.8-14.4-5.3-18.5c-3.5-4.1-8.6-6.2-15.2-6.2
		c-7.3,0-13.1,2.4-17.3,7.3c-4.3,4.8-6.4,11.8-6.4,20.8v43.6h-14.4V73.9c0-8.2-1.8-14.4-5.3-18.5c-3.5-4.1-8.6-6.2-15.2-6.2
		c-7.3,0-13.1,2.4-17.3,7.3c-4.3,4.8-6.4,11.8-6.4,20.8v43.6h-14.4V36.2H629v12.6c2.9-4.4,6.7-7.7,11.4-10c4.7-2.3,10-3.4,16-3.4
		c6.2,0,11.7,1.3,16.4,4c4.8,2.7,8.5,6.5,11.1,11.6c3-4.9,7.2-8.7,12.5-11.5c5.3-2.8,11.3-4.1,18-4.1
		C724.4,35.4,732.3,38.5,738.1,44.7z"/>
	<path class="st1" d="M845.1,83.6h-64.3c0.9,7.4,4,13.4,9.2,17.9c5.2,4.5,11.7,6.8,19.5,6.8c9.5,0,17.1-3.4,22.9-10.2l7.9,9.9
		c-3.6,4.5-8.1,7.9-13.4,10.2c-5.3,2.3-11.3,3.5-17.9,3.5c-8.4,0-15.8-1.8-22.3-5.5c-6.5-3.7-11.5-8.8-15-15.4
		c-3.5-6.6-5.3-14-5.3-22.3c0-8.2,1.7-15.6,5.2-22.2c3.4-6.6,8.2-11.7,14.2-15.4c6-3.7,12.8-5.5,20.4-5.5c7.6,0,14.3,1.8,20.3,5.5
		c5.9,3.7,10.6,8.8,13.9,15.4c3.3,6.6,5,14.1,5,22.7C845.4,80.1,845.3,81.7,845.1,83.6z M788.9,55c-4.6,4.5-7.4,10.3-8.1,17.5h50.8
		c-0.8-7.1-3.5-12.9-8.1-17.5c-4.6-4.5-10.4-6.8-17.3-6.8C799.3,48.3,793.6,50.6,788.9,55z"/>
	<path class="st1" d="M940,2.4v118.4h-13.8v-13.4c-3.2,4.7-7.2,8.2-12.1,10.7c-4.9,2.4-10.3,3.7-16.2,3.7c-7.7,0-14.6-1.8-20.6-5.4
		c-6.1-3.6-10.8-8.7-14.3-15.2c-3.4-6.5-5.2-14.1-5.2-22.6c0-8.5,1.7-16,5.2-22.5c3.4-6.5,8.2-11.5,14.3-15.2
		c6.1-3.6,13-5.4,20.6-5.4c5.7,0,10.9,1.1,15.7,3.4c4.8,2.3,8.8,5.7,12,10.1V2.4H940z M912.8,104.6c4.1-2.5,7.3-6,9.6-10.5
		c2.3-4.5,3.4-9.7,3.4-15.6c0-5.8-1.1-11-3.4-15.6c-2.3-4.5-5.5-8-9.6-10.4c-4.1-2.4-8.6-3.7-13.6-3.7c-5.1,0-9.6,1.2-13.7,3.7
		c-4,2.4-7.2,5.9-9.6,10.4c-2.3,4.5-3.5,9.7-3.5,15.6c0,5.9,1.2,11,3.5,15.6c2.3,4.5,5.5,8,9.6,10.5c4,2.5,8.6,3.7,13.7,3.7
		C904.2,108.3,908.7,107.1,912.8,104.6z"/>
	<path class="st1" d="M967.5,17.1c-1.8-1.9-2.8-4.3-2.8-7c0-2.8,0.9-5.1,2.8-7.1c1.8-2,4.2-3,7-3c2.8,0,5.1,0.9,7,2.8
		c1.8,1.9,2.8,4.2,2.8,6.9c0,2.9-0.9,5.3-2.8,7.3c-1.8,2-4.2,3-7,3C971.6,19.9,969.3,19,967.5,17.1z M967.3,36.2h14.4v84.5h-14.4
		V36.2z"/>
	<path class="st1" d="M1021.9,116.1c-6.3-3.7-11.3-8.9-14.9-15.4c-3.6-6.5-5.4-14-5.4-22.3c0-8.3,1.8-15.7,5.4-22.3
		c3.6-6.5,8.5-11.6,14.9-15.3c6.3-3.7,13.5-5.5,21.6-5.5c7.2,0,13.6,1.5,19.2,4.6c5.6,3.1,10,7.6,13.1,13.4l-10.9,7.5
		c-2.5-4-5.6-7.1-9.3-9.1c-3.7-2-7.8-3-12.3-3c-5.2,0-9.8,1.2-14,3.7c-4.1,2.4-7.4,5.9-9.7,10.4c-2.3,4.5-3.5,9.7-3.5,15.6
		c0,6,1.2,11.2,3.5,15.7c2.3,4.5,5.6,8,9.7,10.4c4.1,2.4,8.8,3.7,14,3.7c4.5,0,8.6-1,12.3-3c3.7-2,6.8-5.1,9.3-9.1l10.9,7.3
		c-3.1,5.8-7.5,10.3-13.1,13.5c-5.6,3.1-12,4.7-19.2,4.7C1035.4,121.7,1028.2,119.9,1021.9,116.1z"/>
	<path class="st1" d="M1094.6,17.1c-1.8-1.9-2.8-4.3-2.8-7c0-2.8,0.9-5.1,2.8-7.1c1.8-2,4.2-3,7-3c2.8,0,5.1,0.9,7,2.8
		c1.8,1.9,2.8,4.2,2.8,6.9c0,2.9-0.9,5.3-2.8,7.3c-1.8,2-4.2,3-7,3C1098.8,19.9,1096.4,19,1094.6,17.1z M1094.4,36.2h14.4v84.5
		h-14.4V36.2z"/>
	<path class="st1" d="M1202.4,44.7c5.9,6.2,8.9,15.3,8.9,27.4v48.7h-14.4V73.9c0-8.2-1.8-14.4-5.5-18.5c-3.7-4.1-9-6.2-15.9-6.2
		c-7.8,0-13.9,2.4-18.4,7.3c-4.5,4.8-6.7,11.8-6.7,20.8v43.6h-14.4V36.2h13.8V49c2.9-4.4,6.8-7.7,11.7-10c4.9-2.3,10.5-3.5,16.8-3.5
		C1188.5,35.4,1196.5,38.5,1202.4,44.7z"/>
	<path class="st1" d="M1292,44c5.8,5.7,8.7,14.3,8.7,25.7v51h-13.6v-11.2c-2.4,3.9-5.8,6.9-10.2,9c-4.4,2.1-9.7,3.1-15.8,3.1
		c-8.9,0-16-2.3-21.3-6.9c-5.3-4.6-8-10.6-8-18c0-7.4,2.5-13.4,7.6-17.9c5.1-4.5,13.2-6.8,24.2-6.8h22.7v-3c0-6.6-1.8-11.6-5.4-15.2
		c-3.6-3.5-8.9-5.3-15.9-5.3c-4.7,0-9.3,0.8-13.8,2.5c-4.5,1.6-8.3,3.9-11.4,6.6l-6-11.5c4.1-3.5,9-6.2,14.7-8.1
		c5.7-1.9,11.7-2.8,18.1-2.8C1277.7,35.4,1286.1,38.3,1292,44z M1277.7,106c4-2.6,6.9-6.3,8.7-11.1V83.1h-22.1
		c-12.2,0-18.2,4.4-18.2,13.1c0,4.3,1.5,7.6,4.6,10c3.1,2.4,7.4,3.7,12.9,3.7C1269,109.9,1273.7,108.6,1277.7,106z"/>
</g>
</svg>
